<svg xmlns="http://www.w3.org/2000/svg" viewBox="0 0 500 500"><g id="freepik--Shadow--inject-10"><ellipse cx="250" cy="416.24" rx="193.89" ry="11.32" style="fill:#f5f5f5"></ellipse></g><g id="freepik--Screen--inject-10"><rect x="238.49" y="70.57" width="6.39" height="1.03" style="fill:#B9B4C7"></rect><rect x="319.14" y="119.42" width="17.18" height="1.03" transform="translate(193.16 441.94) rotate(-87.42)" style="fill:#B9B4C7"></rect><polygon points="325.61 75.19 207.61 75.19 196.63 320.91 314.63 320.91 325.61 75.19" style="fill:#B9B4C7"></polygon><polygon points="322.09 78.57 204.09 78.57 193.11 324.29 311.11 324.29 322.09 78.57" style="fill:#fafafa;opacity:0.56"></polygon><polygon points="318.57 81.94 200.57 81.94 189.58 327.66 307.58 327.66 318.57 81.94" style="fill:#B9B4C7;opacity:0.07"></polygon><polygon points="305.14 189.11 204.42 189.11 203.58 207.91 304.3 207.91 305.14 189.11" style="fill:#fff"></polygon><polygon points="259.81 175.39 205.03 175.39 204.66 183.8 259.44 183.8 259.81 175.39" style="fill:#B9B4C7"></polygon><polygon points="302.87 239.85 202.15 239.85 201.31 258.65 302.03 258.65 302.87 239.85" style="fill:#fff"></polygon><polygon points="284.4 284.04 216.67 284.04 215.66 306.57 283.39 306.57 284.4 284.04" style="fill:#B9B4C7;opacity:0.47000000000000003"></polygon><path d="M279.87,310.07H212.14a.18.18,0,0,1-.09,0,.14.14,0,0,1,0-.09l1-22.54a.11.11,0,0,1,.12-.11h67.73a.09.09,0,0,1,.08,0,.08.08,0,0,1,0,.08L280,310A.13.13,0,0,1,279.87,310.07Zm-67.61-.24h67.49l1-22.3H213.26Z" style="fill:#fff"></path><polygon points="247.98 226.13 202.76 226.13 202.39 234.55 247.6 234.55 247.98 226.13" style="fill:#B9B4C7"></polygon><path d="M283.11,128.38a26.53,26.53,0,0,1-5.57,15.05A26.88,26.88,0,0,1,256.34,154a24.31,24.31,0,0,1-24.46-25.62,27,27,0,0,1,26.75-25.62A24.29,24.29,0,0,1,283.11,128.38Z" style="fill:#fff"></path><path d="M285.52,108.12a7,7,0,0,1-1.48,4,7.17,7.17,0,0,1-5.64,2.81,6.48,6.48,0,0,1-5.38-2.81,6.61,6.61,0,0,1-1.12-4,7.18,7.18,0,0,1,7.11-6.8A6.46,6.46,0,0,1,285.52,108.12Z" style="fill:#B9B4C7"></path><path d="M215.27,198.51a3.19,3.19,0,0,1-3.15,3,2.85,2.85,0,0,1-2.88-3,3.17,3.17,0,0,1,3.15-3A2.86,2.86,0,0,1,215.27,198.51Z" style="fill:#263238"></path><path d="M228.75,198.51a3.18,3.18,0,0,1-3.15,3,2.85,2.85,0,0,1-2.87-3,3.17,3.17,0,0,1,3.14-3A2.85,2.85,0,0,1,228.75,198.51Z" style="fill:#263238"></path><path d="M242.24,198.51a3.18,3.18,0,0,1-3.15,3,2.86,2.86,0,0,1-2.88-3,3.18,3.18,0,0,1,3.15-3A2.85,2.85,0,0,1,242.24,198.51Z" style="fill:#263238"></path><path d="M213,249.25a3.19,3.19,0,0,1-3.15,3,2.86,2.86,0,0,1-2.88-3,3.18,3.18,0,0,1,3.15-3A2.86,2.86,0,0,1,213,249.25Z" style="fill:#263238"></path><path d="M226.48,249.25a3.18,3.18,0,0,1-3.14,3,2.85,2.85,0,0,1-2.88-3,3.18,3.18,0,0,1,3.15-3A2.85,2.85,0,0,1,226.48,249.25Z" style="fill:#263238"></path><path d="M240,249.25a3.18,3.18,0,0,1-3.15,3,2.87,2.87,0,0,1-2.88-3,3.19,3.19,0,0,1,3.15-3A2.85,2.85,0,0,1,240,249.25Z" style="fill:#263238"></path><path d="M253.46,249.25a3.19,3.19,0,0,1-3.15,3,2.87,2.87,0,0,1-2.88-3,3.19,3.19,0,0,1,3.15-3A2.86,2.86,0,0,1,253.46,249.25Z" style="fill:#263238"></path><path d="M267,249.25a3.19,3.19,0,0,1-3.15,3,2.85,2.85,0,0,1-2.88-3,3.18,3.18,0,0,1,3.15-3A2.86,2.86,0,0,1,267,249.25Z" style="fill:#263238"></path><ellipse cx="257.87" cy="119.82" rx="10.6" ry="10.13" transform="translate(-10.27 214.43) rotate(-44.36)" style="fill:#B9B4C7"></ellipse><path d="M277.54,143.43A26.88,26.88,0,0,1,256.34,154a24.27,24.27,0,0,1-20.24-10.57c4.86-4.84,12.55-8,21.07-8S273.11,138.59,277.54,143.43Z" style="fill:#B9B4C7"></path><ellipse cx="257.87" cy="119.82" rx="10.6" ry="10.13" transform="translate(-10.27 214.43) rotate(-44.36)" style="fill:#fff;opacity:0.1"></ellipse><path d="M277.54,143.43A26.88,26.88,0,0,1,256.34,154a24.27,24.27,0,0,1-20.24-10.57c4.86-4.84,12.55-8,21.07-8S273.11,138.59,277.54,143.43Z" style="fill:#fff;opacity:0.1"></path></g><g id="freepik--character-1--inject-10"><path d="M130.41,212.44c-.95,2.08-1.95,4.37-2.82,6.59s-1.76,4.51-2.53,6.79a86.24,86.24,0,0,0-3.58,13.8l-.22,1.47a2.15,2.15,0,0,0,.07.75,7.8,7.8,0,0,0,1.1,2.32,29.28,29.28,0,0,0,4.44,5,67.35,67.35,0,0,0,5.52,4.61c1.92,1.48,3.94,2.92,5.93,4.28l-1.87,3.51A70.87,70.87,0,0,1,123,253.85a32.39,32.39,0,0,1-6-5.68,14.25,14.25,0,0,1-2.39-4.27,9.7,9.7,0,0,1-.48-3c0-.24,0-.59,0-.76l0-.49.1-1a78.22,78.22,0,0,1,3.27-15.34c.78-2.46,1.61-4.91,2.56-7.3s1.93-4.73,3.14-7.16Z" style="fill:#e58a7b"></path><path d="M136.91,257.43l7.07-3.58-1.83,7.76s-4.85,1.36-7.1-1Z" style="fill:#e58a7b"></path><polygon points="150.45 255.12 148.57 261.54 142.15 261.61 143.98 253.85 150.45 255.12" style="fill:#e58a7b"></polygon><path d="M160.43,175A20,20,0,0,0,162,179a1.63,1.63,0,0,1-1.59.51Z" style="fill:#df5753"></path><ellipse cx="160.22" cy="173.91" rx="0.75" ry="1.15" style="fill:#263238"></ellipse><path d="M160,172.8l1.52-.43S160.78,173.55,160,172.8Z" style="fill:#263238"></path><path d="M140.9,182.34c.91,4.65,1.82,13.18-1.44,16.29,0,0,1.28,4.72,9.93,4.72,9.51,0,4.54-4.72,4.54-4.72-5.19-1.24-5.06-5.09-4.15-8.71Z" style="fill:#e58a7b"></path><path d="M138.37,171.74c.48,7.77.52,11.07,4.44,15.06,5.91,6,15.35,3.72,17.2-4,1.67-7,.61-18.52-7-21.61A10.62,10.62,0,0,0,138.37,171.74Z" style="fill:#e58a7b"></path><path d="M139.14,163c-3.9,1.42-9.1.36-7.06,12.39,2.16,12.74-1.16,16.93-1.16,16.93s14.79,3.15,29.89-.19c0,0-4.61-8.06-3.32-14,1.65-7.5.35-10.27.35-10.27S144.62,161,139.14,163Z" style="fill:#263238"></path><path d="M155.64,175.79a7.81,7.81,0,0,0,1.22,4.17c1.06,1.62,2.31,1,2.62-.72.28-1.51.07-4.18-1.28-5.22S155.66,174,155.64,175.79Z" style="fill:#e58a7b"></path><path d="M135.75,164.31c-1.12-3.15,4.22-8,15.52-6s11.79,11.41,11.79,11.41L160.78,167l.1,2.86-11.61,2.23Z" style="fill:#263238"></path><path d="M136.71,199.16h0a1.77,1.77,0,0,1,1.45-2c3.52-.58,11.52-1.76,15.54-1.2,3,.42,3.78,2.16,3.91,3.59a1.76,1.76,0,0,1-1.85,1.9l-17.38-.78A1.78,1.78,0,0,1,136.71,199.16Z" style="fill:#B9B4C7"></path><path d="M136.71,199.16h0a1.77,1.77,0,0,1,1.45-2c3.52-.58,11.52-1.76,15.54-1.2,3,.42,3.78,2.16,3.91,3.59a1.76,1.76,0,0,1-1.85,1.9l-17.38-.78A1.78,1.78,0,0,1,136.71,199.16Z" style="opacity:0.6000000000000001"></path><polygon points="146.76 373.86 153.21 378.34 164 363.71 157.55 359.24 146.76 373.86" style="fill:#e58a7b"></polygon><polygon points="131.72 373.57 138.53 377.45 148.08 361.98 141.27 358.1 131.72 373.57" style="fill:#e58a7b"></polygon><polygon points="163.99 363.71 158.43 371.25 151.98 366.78 157.54 359.24 163.99 363.71" style="fill:#cf6f64"></polygon><polygon points="141.26 358.1 148.08 361.99 143.16 369.96 136.34 366.07 141.26 358.1" style="fill:#cf6f64"></polygon><path d="M152.2,248s25.18,31.73,20.45,62.08c-3.81,24.51-25.91,57.7-25.91,57.7l-10.39-5.16a339.26,339.26,0,0,0,18.7-45.44,33.59,33.59,0,0,0-4-29.1c-12.76-18.63-33.2-7.54-19.45-40.08Z" style="fill:#B9B4C7"></path><path d="M152.2,248s25.18,31.73,20.45,62.08c-3.81,24.51-25.91,57.7-25.91,57.7l-10.39-5.16a339.26,339.26,0,0,0,18.7-45.44,33.59,33.59,0,0,0-4-29.1c-12.76-18.63-33.2-7.54-19.45-40.08Z" style="opacity:0.6000000000000001"></path><path d="M164.55,268.38l-3.66-3.64c0,.29,7.09,44.06,9.08,56.36a74.53,74.53,0,0,0,2.69-11C175,295.21,170.11,280,164.55,268.38Z" style="opacity:0.4"></path><path d="M163.44,248s30.32,39.88,31.18,63.79c.71,20-33,58.75-33,58.75l-9.8-6.34s19.73-27.52,24.7-50C174.6,291.92,134,248,134,248Z" style="fill:#B9B4C7"></path><path d="M163.44,248s30.32,39.88,31.18,63.79c.71,20-33,58.75-33,58.75l-9.8-6.34s19.73-27.52,24.7-50C174.6,291.92,134,248,134,248Z" style="opacity:0.6000000000000001"></path><path d="M125.93,200.41c-3.24.77-6.35,12.55-6.35,12.55l12.67,8.46s4.22-9.32,2.74-13.4C133.46,203.77,130,199.44,125.93,200.41Z" style="fill:#B9B4C7"></path><path d="M128.41,208l-.88,10.27,4.71,3.16a42.2,42.2,0,0,0,2.87-9.14Z" style="opacity:0.2"></path><path d="M167.19,200.64s3.74,1.31-3.75,47.35H131.58c.54-13,.55-21-5.65-47.58a94.29,94.29,0,0,1,13.53-1.78,101.16,101.16,0,0,1,14.47,0C160.15,199.2,167.19,200.64,167.19,200.64Z" style="fill:#B9B4C7"></path><path d="M170.43,208c.72,2,1.48,4.15,2.28,6.22s1.56,4.2,2.37,6.3l2.45,6.28.62,1.57.32.78.15.39c0,.07,0,.07,0,.06a2.06,2.06,0,0,0-.7-.62,2.85,2.85,0,0,0-1.3-.39,2.61,2.61,0,0,0-1.11.21c-.46.21-.46.3-.45.29a1.21,1.21,0,0,0,.22-.23,13.63,13.63,0,0,0,1.43-2.33c.47-.92.92-1.9,1.37-2.89.88-2,1.69-4.07,2.5-6.16s1.58-4.2,2.33-6.33l2.28-6.38,3.85,1c-.76,4.56-1.74,9-2.92,13.52-.57,2.25-1.24,4.48-2,6.73-.38,1.13-.8,2.25-1.28,3.4A21.55,21.55,0,0,1,181,233a9.32,9.32,0,0,1-.88,1.08,5.42,5.42,0,0,1-1.82,1.29,4.48,4.48,0,0,1-1.94.36,4.4,4.4,0,0,1-2.11-.63,5.38,5.38,0,0,1-1.82-1.89c-.15-.26-.28-.52-.37-.71l-.19-.38-.38-.78-.76-1.55c-1-2.08-2-4.18-2.87-6.29s-1.79-4.25-2.65-6.4-1.63-4.3-2.36-6.62Z" style="fill:#e58a7b"></path><path d="M167.19,200.64c3.83.91,8.14,12.23,8.14,12.23l-11.39,9.69s-7.37-12.34-5.88-16.41C159.61,201.91,162.19,199.45,167.19,200.64Z" style="fill:#B9B4C7"></path><path d="M187,201.19l4-3.34,2.78,4.33-2.05,3.61s-3.26,3-6.14,1.47h0A5.17,5.17,0,0,1,187,201.19Z" style="fill:#e58a7b"></path><polygon points="198.22 197.86 197.92 198.95 191.59 200.01 190.97 197.85 198.22 197.86" style="fill:#e58a7b"></polygon><polygon points="162.4 371.05 150.98 363.67 153.03 360.11 165.86 368 162.4 371.05" style="fill:#B9B4C7"></polygon><path d="M143,376.93a6.88,6.88,0,0,1-2.82-1,.18.18,0,0,1,0-.34c.31-.1,3-.93,3.78-.29a.64.64,0,0,1,.22.61,1.06,1.06,0,0,1-.57.86A1.31,1.31,0,0,1,143,376.93Zm-2.25-1.1c1.25.64,2.25.87,2.73.63a.7.7,0,0,0,.36-.58c0-.16,0-.23-.09-.27C143.33,375.27,141.83,375.53,140.73,375.83Z" style="fill:#263238"></path><path d="M140.25,376a.2.2,0,0,1-.14-.06.19.19,0,0,1,0-.18c0-.09.65-2.26,1.67-2.75a1,1,0,0,1,.83,0,.66.66,0,0,1,.46.67c-.07.9-1.9,2.14-2.74,2.35Zm1.94-2.73a.68.68,0,0,0-.28.07c-.62.3-1.13,1.47-1.38,2.18.88-.37,2.09-1.35,2.13-1.9,0-.09,0-.2-.23-.3A.74.74,0,0,0,142.19,373.24Z" style="fill:#263238"></path><path d="M157.27,381.25c-1.13,0-2.7-1.45-3.56-2.34a.18.18,0,0,1,0-.21.21.21,0,0,1,.19-.1c.4,0,3.87.52,4.36,1.5a.57.57,0,0,1,0,.58,1,1,0,0,1-.79.56Zm-2.9-2.2c1.26,1.22,2.37,1.9,3,1.82a.68.68,0,0,0,.52-.37.21.21,0,0,0,0-.23C157.63,379.73,155.78,379.27,154.37,379.05Z" style="fill:#263238"></path><path d="M154.48,379a3.27,3.27,0,0,1-.67-.05.18.18,0,0,1-.14-.11.21.21,0,0,1,0-.19c.06-.07,1.41-1.7,2.69-1.81a1.39,1.39,0,0,1,1,.32c.39.34.37.64.27.83C157.38,378.67,155.65,379,154.48,379Zm-.26-.37c1.12.06,2.91-.31,3.14-.8,0,0,.08-.16-.18-.38a1,1,0,0,0-.76-.24A4.38,4.38,0,0,0,154.22,378.64Z" style="fill:#263238"></path><path d="M140.52,374.92l-8.48-2.4a.62.62,0,0,0-.75.35l-2.86,6.43a1.26,1.26,0,0,0,.83,1.69c3,.78,4.44,1,8.17,2.07,2.3.64,5.58,1.83,8.75,2.73s4.23-2.19,3-2.85c-5.56-2.94-6-5-7.52-7.2A2.06,2.06,0,0,0,140.52,374.92Z" style="fill:#B9B4C7"></path><path d="M153.94,377.74l-7.24-5a.62.62,0,0,0-.82.08l-4.8,5.16a1.25,1.25,0,0,0,.24,1.86c2.55,1.71,3.87,2.4,7.06,4.61,2,1.36,5.87,4.38,8.57,6.26s4.71-.7,3.75-1.72c-4.3-4.59-5.24-7.47-5.95-10.08A2.07,2.07,0,0,0,153.94,377.74Z" style="fill:#B9B4C7"></path><polygon points="148.07 368.44 135.02 361.95 136.37 358.41 150.31 365.25 148.07 368.44" style="fill:#B9B4C7"></polygon><path d="M131.1,246.12,130,249c-.11.22.15.45.52.45H163.6c.29,0,.53-.14.55-.32l.28-2.86c0-.19-.23-.36-.54-.36H131.62A.61.61,0,0,0,131.1,246.12Z" style="fill:#B9B4C7"></path><path d="M131.1,246.12,130,249c-.11.22.15.45.52.45H163.6c.29,0,.53-.14.55-.32l.28-2.86c0-.19-.23-.36-.54-.36H131.62A.61.61,0,0,0,131.1,246.12Z" style="fill:#fff;opacity:0.4"></path><path d="M136.31,249.73h-.87c-.17,0-.3-.09-.29-.2l.41-3.71c0-.1.16-.19.33-.19h.87c.17,0,.3.09.29.19l-.41,3.71C136.63,249.64,136.48,249.73,136.31,249.73Z" style="fill:#B9B4C7"></path><path d="M156.71,249.73h-.86c-.17,0-.3-.09-.29-.2l.4-3.71c0-.1.17-.19.34-.19h.86c.17,0,.31.09.29.19l-.4,3.71C157,249.64,156.89,249.73,156.71,249.73Z" style="fill:#B9B4C7"></path><ellipse cx="135.55" cy="417.14" rx="26.79" ry="1.94" style="fill:#f5f5f5;mix-blend-mode:multiply"></ellipse><path d="M151.87,414.4c-4.74-1.38-10-3.15-13.18-5-.09-.06-.19-.09-.28-.14V387.8H148a2.86,2.86,0,0,0,0-5.71h-9.54V284.27H132.7v97.82h-9.53a2.86,2.86,0,1,0,0,5.71h9.53v21.43c-.09,0-.18.08-.27.14-3.23,1.88-8.45,3.65-13.19,5a1.4,1.4,0,0,0,.39,2.74h31.85A1.4,1.4,0,0,0,151.87,414.4Z" style="fill:#e0e0e0"></path><rect x="112.6" y="274.31" width="45.92" height="20.93" rx="5.18" style="fill:#B9B4C7"></rect><path d="M117.45,295.25v1.82c0,1.5,1.63,2.72,3.63,2.72h29c2,0,3.63-1.22,3.63-2.72v-1.82Z" style="fill:#B9B4C7"></path><path d="M117.45,295.25v1.82c0,1.5,1.63,2.72,3.63,2.72h29c2,0,3.63-1.22,3.63-2.72v-1.82Z" style="fill:#fff;opacity:0.30000000000000004"></path></g></svg>